<svg xmlns="http://www.w3.org/2000/svg" version="1.1" viewBox="0 0 1600 952">
<path transform="translate(0)" d="m0 0h1600v952h-1600v-952z" fill="#FDFDFD"/>
<path transform="translate(0)" d="m0 0h1600v952h-1600v-952zm171 71c-12.8 14.6-20.6 32.3-21.6 51.7-0.0396 0.762-0.0792 1.52-0.12 2.31-0.523 11.4-0.431 22.9-0.419 34.3 0.00257 3.55-7.34e-4 7.1-0.00324 10.6-0.00359 6.21-0.00351 12.4-9.53e-4 18.6 0.0038 9.23 0.00184 18.5-0.00121 27.7-0.00525 16.5-0.00481 33-0.00192 49.5 0.00252 14.4 0.00317 28.9 0.00198 43.3-7.64e-5 0.958-1.53e-4 1.92-2.31e-4 2.9-3.11e-4 3.89-6.3e-4 7.78-9.6e-4 11.7-0.00306 36.5-2.89e-4 72.9 0.0051 109 0.00475 32.4 0.00432 64.7-4.61e-4 97.1-0.00536 36.4-0.00748 72.8-0.00439 109 3.21e-4 3.88 6.34e-4 7.77 9.43e-4 11.6 7.91e-5 0.956 1.58e-4 1.91 2.4e-4 2.9 0.00114 14.4-1.9e-4 28.8-0.00272 43.2-0.00286 16.4-0.00214 32.8 0.00328 49.2 0.00293 9.17 0.00314 18.3-6.46e-4 27.5-0.00225 6.13-8.3e-4 12.3 0.0035 18.4 0.00237 3.49 0.00322 6.98-4.06e-4 10.5-0.427 44.9-0.427 44.9 19.1 84.3l2 3h2c0.333 0.843 0.333 0.843 0.672 1.7 5.92 10.2 22.6 19.6 33.8 22.7 12.7 3.18 24.3 4.07 37.3 4.02 1.97 0.00283 3.94 0.00698 5.91 0.0123 5.4 0.0108 10.8 0.00305 16.2-0.00783 5.88-0.00853 11.8 3.89e-4 17.6 0.00706 10.3 0.00929 20.6 0.00754 30.9-0.00173 11-0.00989 22.1-0.0132 33.1-0.00862 0.699 2.87e-4 1.4 5.74e-4 2.12 8.7e-4 2.85 0.00119 5.69 0.00243 8.54 0.00373 26.5 0.0121 53 0.00957 79.5-0.00219 25.5-0.0113 51-0.0173 76.6-0.0158 1.6 8.54e-5 3.21 1.7e-4 4.81 2.55e-4 6.44 3.48e-4 12.9 7.33e-4 19.3 0.00117 18 0.00119 36 0.00138 54 7.97e-4 0.82-2.6e-5 1.64-5.21e-5 2.49-7.89e-5 26.1-8.99e-4 52.3-0.0062 78.4-0.0146 1.27-4.1e-4 1.27-4.1e-4 2.57-8.28e-4 13.8-0.00445 27.5-0.00917 41.3-0.0139 54.6-0.0187 109-0.0252 164-0.0196 3.45 3.47e-4 6.9 6.93e-4 10.3 0.00104 1.28 1.28e-4 1.28 1.28e-4 2.58 2.59e-4 9.44 9.46e-4 18.9 0.00186 28.3 0.00273 1.27 1.18e-4 1.27 1.18e-4 2.57 2.39e-4 45.7 0.00422 91.5-0.00108 137-0.00975 1.61-3.03e-4 3.22-6.06e-4 4.84-9.09e-4 0.797-1.5e-4 1.59-2.99e-4 2.41-4.53e-4 1.61-3.01e-4 3.22-6.02e-4 4.82-9.03e-4 4.01-7.49e-4 8.01-0.0015 12-0.00228 17.6-0.00335 35.1-0.00542 52.7-0.00406 0.791 6.05e-5 1.58 1.21e-4 2.4 1.83e-4 3.98 3.12e-4 7.96 6.45e-4 11.9 9.86e-4 28.8 0.00245 57.6-0.00161 86.3-0.0172 2.84-0.00151 5.67-0.00299 8.51-0.00445 0.696-3.61e-4 1.39-7.21e-4 2.11-0.00109 11-0.00553 22-0.0044 33.1-5.02e-4 10.8 0.00369 21.7 4.75e-5 32.5-0.0109 5.79-0.00564 11.6-0.00812 17.4-0.00183 5.27 0.00565 10.5 0.00208 15.8-0.0088 1.89-0.0023 3.79-0.00128 5.68 0.00352 27.4 0.0643 48.7-6.1 68.9-25.4 17.8-17.7 21.9-40.5 22-64.7 0.00228-2.51-5.82e-4 -5.02-0.00394-7.53 6.79e-4 -1.85 0.00165-3.7 0.0029-5.55 0.00148-3.92-6.55e-4 -7.85-0.00534-11.8-0.00539-4.71-0.00252-9.43 0.00345-14.1 0.0213-20.2-0.0775-40.3-0.361-60.5-1.06-76.7-0.926-153-0.902-230 0.00447-15 0.00365-29.9-9.1e-4 -44.9-0.048-162-0.048-162 0.959-235 0.253-18.4 0.39-36.8 0.411-55.2 0.00462-3.34 0.0195-6.69 0.041-10 0.805-35.7 0.805-35.7-11.3-68.7-0.558-0.994-1.12-1.99-1.69-3.01-10.8-18.3-27.9-31.5-48.5-37.1-4.33-0.959-8.59-1.5-13-1.94-1.31-0.129-1.31-0.129-2.65-0.26-9.38-0.853-18.7-0.927-28.1-0.899-1.94-0.00179-3.87-0.00445-5.81-0.0079-5.28-0.00691-10.6-0.0015-15.8 0.00606-5.76 0.00601-11.5 3.3e-4 -17.3-0.00382-10.1-0.00567-20.2-0.00395-30.2 0.00269-10.8 0.00709-21.6 0.0099-32.4 0.00736-1.03-2.37e-4 -1.03-2.37e-4 -2.07-4.78e-4 -3.49-8.24e-4 -6.98-0.00172-10.5-0.00263-25.2-0.00646-50.5-0.00313-75.7 0.00559-25 0.00863-50 0.0135-74.9 0.0133-1.57-7.92e-6 -3.14-1.56e-5 -4.71-2.32e-5 -6.31-3.74e-5 -12.6-1.04e-4 -18.9-2.06e-4 -17.6-2.78e-4 -35.3 1.11e-4 -52.9 9.89e-4 -1.2 5.95e-5 -1.2 5.95e-5 -2.43 1.2e-4 -25.6 0.00131-51.2 0.00548-76.8 0.0117-1.24 3.04e-4 -1.24 3.04e-4 -2.51 6.15e-4 -13.5 0.00331-26.9 0.0068-40.4 0.0103-53.4 0.0139-107 0.0205-160 0.0198-1.69-2.04e-5 -3.38-4.06e-5 -5.07-6.06e-5 -3.37-4.02e-5 -6.75-8.1e-5 -10.1-1.22e-4 -7.57-9.14e-5 -15.1-1.76e-4 -22.7-2.47e-4 -1.68-1.58e-5 -3.35-3.22e-5 -5.03-4.93e-5 -44.8-4.45e-4 -89.6 0.00402-134 0.0104-0.782 1.1e-4 -1.56 2.2e-4 -2.37 3.34e-4 -10.6 0.0015-10.6 0.0015-21.2 0.00302-17.2 0.00249-34.4 0.00444-51.6 0.00481-0.774 1.75e-5 -1.55 3.51e-5 -2.35 5.31e-5 -3.12 6.92e-5 -6.24 1.34e-4 -9.36 1.97e-4 -29 5.86e-4 -57.9 0.00436-86.9 0.0145-2.78 9.58e-4 -5.55 0.0019-8.33 0.00283-1.02 3.46e-4 -1.02 3.46e-4 -2.07 6.99e-4 -11.4 0.00378-22.9 0.00364-34.3 0.00247-9.95-7.34e-4 -19.9 0.00217-29.9 0.00804-5.67 0.00325-11.3 0.00494-17 0.00224-5.16-0.00242-10.3-2.14e-4 -15.5 0.00562-1.85 0.0013-3.7 9.38e-4 -5.56-0.00132-32.3-0.0362-58 5.07-81.6 29.1z" fill="#FDFDFD"/>
<path transform="translate(255 41.9)" d="m0 0c1.93-0.00135 3.86-0.00313 5.78-0.00531 5.28-0.00471 10.6-0.00324 15.9-7.22e-4 5.75 0.00164 11.5-0.00251 17.3-0.00591 10.1-0.00515 20.2-0.00657 30.2-0.00554 10.8 0.0011 21.6 8.48e-5 32.4-0.00357 0.684-2.3e-4 1.37-4.59e-4 2.07-6.96e-4 2.79-9.42e-4 5.57-0.0019 8.36-0.00287 29-0.0101 58.1-0.0132 87.1-0.0138 3.12-6.47e-5 6.25-1.33e-4 9.37-2.03e-4 0.775-1.7e-5 1.55-3.4e-5 2.35-5.15e-5 17.2-4.09e-4 34.4-0.0026 51.6-0.0051 7.08-0.00103 14.2-0.00202 21.2-0.00302 1.17-1.66e-4 1.17-1.66e-4 2.37-3.35e-4 44.8-0.00632 89.7-0.0104 134-0.00999 1.68 1.58e-5 3.35 3.15e-5 5.03 4.72e-5 7.57 7.34e-5 15.1 1.62e-4 22.7 2.54e-4 3.38 4.11e-5 6.75 8.13e-5 10.1 1.21e-4 1.69 2.04e-5 3.38 4.14e-5 5.07 6.31e-5 53.4 6.8e-4 107-0.00664 160-0.0205 13.5-0.0035 26.9-0.00697 40.4-0.0103 0.829-2.03e-4 1.66-4.06e-4 2.51-6.15e-4 25.6-0.00622 51.1-0.00998 76.7-0.0112 1.2-5.99e-5 1.2-5.99e-5 2.43-1.21e-4 17.6-8.53e-4 35.2-0.00111 52.9-8.3e-4 6.31 9.65e-5 12.6 1.49e-4 18.9 1.79e-4 1.57 7.91e-6 3.14 1.81e-5 4.71 3.06e-5 25 1.76e-4 49.9-0.00552 74.9-0.0142 25.2-0.00866 50.3-0.0108 75.5-0.00424 3.48 9.12e-4 6.96 0.00176 10.4 0.00256 1.02 2.4e-4 1.02 2.4e-4 2.07 4.85e-4 11.4 0.00249 22.9-0.00291 34.3-0.0104 9.96-6e-3 19.9-0.00471 29.9 0.00247 5.67 0.00388 11.3 0.00465 17-0.00346 5.17-0.00733 10.3-0.00529 15.5 0.00392 1.85 0.00171 3.7 1.39e-4 5.55-0.0053 9.42-0.0258 18.7 0.249 28.1 1.17 0.819 0.0801 1.64 0.16 2.48 0.243 19.8 2.14 37.5 12 50.7 26.8 21.2 26.7 21.5 53.7 21.3 86.3-0.0181 3.26-0.023 6.52-0.0268 9.78-0.0234 18.4-0.187 36.8-0.441 55.2-1.07 78.5-0.95 157-0.926 235 0.00447 15 0.00365 29.9-9.1e-4 44.9-0.0764 116-0.0764 116 0.963 232 0.273 19.4 0.355 38.9 0.352 58.3-1.07e-4 4.75 0.0143 9.5 0.0308 14.2 0.0111 3.84 0.0131 7.68 0.0126 11.5 0.00115 1.76 0.00539 3.51 0.0133 5.27 0.117 28.3-4.13 52-24.9 73-16.4 15.4-35.5 22.5-57.8 22.5-0.806 0.00165-1.61 0.0033-2.44 5e-3 -2.69 0.0043-5.39 0.00153-8.08-0.00123-1.96 0.00165-3.92 0.00374-5.89 0.00622-5.41 0.00556-10.8 0.00489-16.2 0.00322-5.88-7.31e-4 -11.8 0.00429-17.6 0.00858-10.3 0.0067-20.6 0.00968-30.9 0.0101-11.1 5.03e-4 -22.1 0.00315-33.2 0.00841-1.05 4.95e-4 -1.05 4.95e-4 -2.12 1e-3 -2.84 0.00135-5.69 0.00271-8.53 0.00409-33.7 0.0163-67.3 0.0227-101 0.0274-16.8 0.00238-33.5 0.00609-50.3 0.01-53.8 0.0127-108 0.0234-161 0.0268-2.57 1.62e-4 -5.14 3.28e-4 -7.71 4.94e-4 -5.15 3.34e-4 -10.3 6.64e-4 -15.5 9.95e-4 -6.03 3.87e-4 -12.1 7.77e-4 -18.1 0.00117-1.73 1.12e-4 -3.45 2.24e-4 -5.18 3.34e-4 -55.5 0.00355-111 0.0186-166 0.0419-39.9 0.0167-79.7 0.0322-120 0.0367-0.82 9.35e-5 -1.64 1.87e-4 -2.48 2.83e-4 -18 0.00202-36 0.00318-54 0.00353-6.44 1.36e-4 -12.9 3.45e-4 -19.3 5.93e-4 -1.6 6.16e-5 -3.2 1.2e-4 -4.81 1.75e-4 -25.5 9.2e-4 -51 0.0109-76.6 0.0255-25.7 0.0146-51.4 0.0197-77.1 0.0116-3.55-0.00112-7.11-0.00213-10.7-0.00307-0.697-1.9e-4 -1.39-3.8e-4 -2.11-5.76e-4 -11-0.00273-22 0.0046-33.1 0.0161-10.8 0.0111-21.7 0.0113-32.5 6.3e-4 -5.8-0.0054-11.6-0.00607-17.4 0.00651-5.28 0.0114-10.6 0.0088-15.8-0.00467-1.89-0.00243-3.79 1.29e-4 -5.68 0.0084-24.3 0.0992-44.1-5.36-63.1-21.2-0.577-0.48-1.16-0.961-1.75-1.46-1.4-1.2-2.74-2.46-4.06-3.73v-2h-2c-22.6-25.1-21.2-57.8-21.1-89.3 0.00257-3.55-7.34e-4 -7.1-0.00324-10.6-0.00359-6.21-0.00351-12.4-9.53e-4 -18.6 0.0038-9.23 0.00184-18.5-0.00121-27.7-0.00525-16.5-0.00481-33-0.00192-49.5 0.00252-14.4 0.00317-28.9 0.00198-43.3-7.64e-5 -0.958-1.53e-4 -1.92-2.31e-4 -2.9-3.11e-4 -3.89-6.3e-4 -7.78-9.6e-4 -11.7-0.00306-36.5-2.89e-4 -72.9 0.0051-109 0.00475-32.4 0.00432-64.7-4.61e-4 -97.1-0.00536-36.4-0.00748-72.8-0.00439-109 3.21e-4 -3.88 6.34e-4 -7.77 9.43e-4 -11.6 7.91e-5 -0.956 1.58e-4 -1.91 2.4e-4 -2.9 0.00114-14.4-1.9e-4 -28.8-0.00272-43.2-0.00286-16.4-0.00214-32.8 0.00328-49.2 0.00293-9.17 0.00314-18.3-6.46e-4 -27.5-0.00225-6.13-8.3e-4 -12.3 0.0035-18.4 0.00237-3.49 0.00322-6.98-4.06e-4 -10.5-0.0193-23.8-0.0193-23.8 0.541-34.6 0.034-0.682 0.0681-1.36 0.103-2.07 1.39-22.5 12.8-41.6 28.7-57 22.8-19.8 48.2-21.9 77.1-21.8zm-33.3 51.1c0.371 2.44 0.635 3.68 2.52 5.33 0.657 0.393 1.31 0.785 1.99 1.19 0.745 0.456 1.49 0.912 2.26 1.38 0.817 0.485 1.63 0.97 2.48 1.47 1.75 1.07 3.5 2.14 5.25 3.22 0.91 0.558 1.82 1.12 2.76 1.69 4.42 2.76 8.74 5.67 13.1 8.59 7.16 4.81 14.4 9.51 21.7 14.1 8.11 5.13 16.1 10.4 24.1 15.7 7.29 4.88 14.7 9.6 22.1 14.3 5.21 3.3 10.4 6.65 15.5 10.1 6.16 4.15 12.4 8.12 18.7 12.1 6.35 3.99 12.6 8.07 18.9 12.2 8.5 5.56 17 11 25.6 16.5 7.02 4.45 14 8.98 20.9 13.5 5.11 3.33 10.3 6.59 15.4 9.81 5.06 3.14 10.1 6.36 15 9.69 7.93 5.33 16 10.4 24.1 15.5 17.1 10.8 34.1 21.6 50.9 32.9 5.36 3.59 10.8 7.08 16.2 10.6 5.87 3.79 11.6 7.73 17.3 11.8 2.68 1.87 4.97 3.4 8.09 4.44 2.76 3.63 2.14 7.65 2 12-6.21-1.82-11.5-4.16-16.9-7.62-0.755-0.47-1.51-0.94-2.29-1.42-7.99-5.01-15.9-10.2-23.7-15.4-8.39-5.52-16.9-10.9-25.4-16.2-7.12-4.43-14.2-8.95-21.2-13.5-11.3-7.41-22.8-14.7-34.2-21.9-9.61-6.04-19.1-12.2-28.6-18.4-5.98-3.91-12-7.77-18-11.6-6.92-4.35-13.8-8.77-20.6-13.2-15.4-10.1-30.8-20-46.4-29.8-7.53-4.75-15.1-9.52-22.6-14.3-1.04-0.658-2.07-1.32-3.14-1.99-5.6-3.58-11.1-7.25-16.5-11.1-4.32-3.02-8.8-5.79-13.3-8.58-0.575-0.359-1.15-0.719-1.74-1.09-2.6-1.63-5.2-3.25-7.81-4.88-3.64-2.27-7.27-4.55-10.9-6.85-8.87-5.63-17.8-11.2-26.7-16.7-1.43-0.881-1.43-0.881-2.9-1.78-11.2-6.92-11.2-6.92-23.9-9.72-1.91 4.14-2.6 8.17-3.09 12.7-0.0837 0.744-0.167 1.49-0.254 2.26-0.891 8.47-1.1 16.9-1.25 25.4-0.0367 1.75-0.074 3.49-0.112 5.24-0.114 5.47-0.209 10.9-0.298 16.4-0.0144 0.867-0.0287 1.73-0.0435 2.63-0.221 13.5-0.375 27.1-0.511 40.6-0.0212 2.05-0.0423 4.1-0.0635 6.15-0.513 50.4-0.531 101-0.518 151 0.00233 9.32 0.00258 18.6 0.00148 27.9-7.64e-5 0.675-1.53e-4 1.35-2.31e-4 2.05-3.12e-4 2.74-6.3e-4 5.49-9.6e-4 8.23-0.00302 25.4-3.52e-4 50.8 0.0051 76.2 0.00477 22.4 0.0043 44.8-4.61e-4 67.2-0.00539 25.4-0.00746 50.9-0.00439 76.3 3.21e-4 2.72 6.33e-4 5.45 9.43e-4 8.17 7.91e-5 0.67 1.58e-4 1.34 2.4e-4 2.03 0.00112 9.97-1.69e-4 19.9-0.00272 29.9-0.00284 11.3-0.00198 22.7 0.00328 34 0.00258 5.75 0.00374 11.5 3.51e-4 17.2-2.84 67.1-2.84 67.1 4.13 133 3.56-0.559 6.09-1.42 9.12-3.37 0.764-0.487 1.53-0.973 2.31-1.47 0.806-0.525 1.61-1.05 2.44-1.59 0.845-0.542 1.69-1.08 2.56-1.64 5.67-3.65 11.3-7.37 16.9-11.1 4.9-3.29 9.88-6.46 14.9-9.6 12.2-7.66 24.3-15.5 36.3-23.4 10.6-6.92 21.1-13.8 31.9-20.5 8.68-5.37 17.2-10.9 25.8-16.5 13.2-8.65 26.5-17.3 39.9-25.8 1.67-1.06 3.33-2.12 5-3.19 3.43-2.19 6.87-4.37 10.3-6.54 10.6-6.68 21.2-13.4 31.7-20.3 13.9-9.02 27.8-17.9 41.8-26.8 5.58-3.55 11.1-7.12 16.7-10.7 4.66-3.02 9.31-6.03 14-9 4.56-2.89 9.09-5.82 13.6-8.75 0.729-0.471 1.46-0.943 2.21-1.43 3.58-2.32 7.16-4.64 10.7-6.98 4.29-2.81 8.61-5.58 12.9-8.34 1.44-0.922 1.44-0.922 2.91-1.86 3.1-1.98 6.22-3.94 9.34-5.89 1.48-0.95 1.48-0.95 3-1.92 0.934-0.578 1.87-1.16 2.83-1.75 1.24-0.783 1.24-0.783 2.51-1.58 2.91-1.21 4.44-0.893 7.41 0.00293 0.324 3.26 0.0871 5.9-1 9-3.14 3.39-7.08 5.62-11 8-1.63 1.01-3.25 2.03-4.88 3.04-3.63 2.26-7.28 4.5-10.9 6.74-4.28 2.63-8.48 5.35-12.6 8.16-13.7 9.25-27.8 17.9-41.7 26.7-5.16 3.26-10.3 6.56-15.4 9.89-5.69 3.71-11.4 7.3-17.2 10.8-7.31 4.43-14.5 9.04-21.7 13.7-5.67 3.71-11.4 7.36-17.1 11-0.777 0.49-1.55 0.979-2.35 1.48-3.17 2-6.34 3.99-9.52 5.98-8.74 5.49-17.4 11-26 16.8-10.6 7.12-21.4 14-32.2 20.8-8.22 5.17-16.3 10.5-24.4 15.9-7.57 5.1-15.2 10.1-22.9 14.9-7.55 4.67-14.8 9.67-22.1 14.7-9.13 6.3-18.4 12.3-27.8 18.3-1.4 0.892-1.4 0.892-2.84 1.8-7.25 4.6-7.25 4.6-10.8 6.86-2.31 1.46-4.61 2.93-6.91 4.4-0.667 0.42-1.33 0.84-2.02 1.27-8.34 5.02-8.34 5.02-13.5 12.7 5.05 5.41 12 5.73 19 6.11 5.69 0.188 11.4 0.157 17.1 0.142 1.94 0.00209 3.88 0.00505 5.82 0.00881 5.33 0.00778 10.7 0.00313 16-0.00356 5.8-0.00507 11.6 0.00145 17.4 0.00649 10.8 0.0077 21.7 0.00636 32.5 8.94e-4 10.2-0.00507 20.5-0.0054 30.7-0.00151 0.689 2.58e-4 1.38 5.17e-4 2.09 7.83e-4 2.81 0.00107 5.61 0.00216 8.42 0.0033 26.1 0.0106 52.3 0.0113 78.4 0.00571 0.774-1.66e-4 1.55-3.31e-4 2.35-5.02e-4 0.775-1.66e-4 1.55-3.32e-4 2.35-5.03e-4 23.6-0.00505 47.2-0.00635 70.9-0.00395 1.58 1.55e-4 3.16 3.09e-4 4.75 4.63e-4 6.36 6.21e-4 12.7 0.00126 19.1 0.00192 17.8 0.00183 35.5 0.00298 53.3 0.00357 1.21 4.09e-5 1.21 4.09e-5 2.45 8.27e-5 25.8 8.19e-4 51.6-0.00144 77.4-0.00578 0.836-1.4e-4 1.67-2.81e-4 2.53-4.26e-4 13.6-0.00229 27.2-0.00473 40.7-0.00718 53.8-0.00971 108-0.00926 162 4.61e-4 13.6 0.00244 27.1 0.00486 40.7 0.00714 1.25 2.11e-4 1.25 2.11e-4 2.53 4.27e-4 25.8 0.00431 51.5 0.00614 77.3 0.00527 0.809-2.72e-5 1.62-5.43e-5 2.45-8.23e-5 17.8-6.25e-4 35.5-0.00189 53.3-0.00374 6.35-6.58e-4 12.7-0.00128 19.1-0.0019 1.58-1.55e-4 3.16-3.12e-4 4.74-4.72e-4 23.6-0.00239 47.2-3.57e-4 70.8 0.0047 0.773 1.66e-4 1.55 3.31e-4 2.34 5.02e-4 0.772 1.65e-4 1.54 3.31e-4 2.34 5.01e-4 26.1 0.00552 52.1 0.00348 78.2-0.00706 2.8-0.0011 5.6-0.00218 8.4-0.00323 0.687-2.6e-4 1.37-5.21e-4 2.08-7.89e-4 10.2-0.0037 20.4-0.00185 30.6 0.00331 11.4 0.00571 22.7 0.00483 34.1-0.00502 5.72-0.00476 11.4-0.00639 17.1 8.12e-4 5.21 0.00649 10.4 0.00367 15.6-0.00636 1.86-2e-3 3.73-7.14e-4 5.59 0.00441 9.04 0.0231 18-0.173 27-1.09 0.732-0.0691 1.46-0.138 2.22-0.209 4.52-0.521 7.97-1.7 11.9-3.96-0.424-4.81-2.69-7.68-6-11-2.51-1.99-5.17-3.71-7.88-5.44-1.17-0.76-1.17-0.76-2.36-1.54-1.69-1.1-3.38-2.2-5.08-3.29-2.78-1.8-5.55-3.61-8.32-5.43-9.85-6.46-19.7-12.8-29.7-19.1-5.43-3.42-10.8-6.93-16.1-10.5-5.18-3.48-10.4-6.88-15.7-10.3-5.07-3.27-10.1-6.56-15.2-9.86-9.51-6.22-19.1-12.4-28.7-18.5-6.11-3.88-12.2-7.8-18.3-11.8-6.47-4.22-13-8.39-19.5-12.5-10.4-6.55-20.7-13.2-31-20-10.5-6.81-21-13.6-31.5-20.2-14.5-9.22-29-18.5-43.4-27.9-7.1-4.62-14.2-9.17-21.4-13.7-7.62-4.84-15.2-9.73-22.8-14.6-2.48-1.61-4.96-3.2-7.44-4.8-1.78-1.15-3.57-2.3-5.35-3.45-1.23-0.791-1.23-0.791-2.49-1.6-2.33-1.51-4.64-3.04-6.95-4.59-0.775-0.505-1.55-1.01-2.35-1.53-5.45-3.75-5.45-3.75-6.43-7.24l0.281-2.6c0.0722-0.874 0.144-1.75 0.219-2.65 0.0928-0.652 0.186-1.3 0.281-1.98 3-1 3-1 5.62 0.16 9.29 5.43 18.2 11.3 27.2 17.3 12.8 8.63 25.9 16.9 38.9 25.2 0.865 0.55 1.73 1.1 2.62 1.67 1.84 1.17 3.68 2.34 5.53 3.5 5.16 3.27 10.3 6.58 15.3 10 5.76 3.87 11.6 7.58 17.5 11.2 5.43 3.37 10.8 6.84 16.1 10.3 6.59 4.3 13.2 8.56 19.9 12.8 6.53 4.11 13 8.26 19.5 12.5 6.3 4.09 12.6 8.13 18.9 12.2 10.2 6.54 20.4 13.2 30.6 19.8 5.25 3.43 10.5 6.84 15.8 10.2 4.04 2.61 8.07 5.23 12.1 7.86 9.04 5.92 18.1 11.8 27.3 17.5 6.81 4.23 13.5 8.64 20.2 13 6.65 4.35 13.3 8.63 20 12.9 12.3 7.77 24.3 15.8 36.3 24 0.685 0.462 1.37 0.925 2.08 1.4 1.25 0.845 2.5 1.69 3.75 2.55 3.14 2.12 6.17 3.67 9.7 5.02 0.0171-67.2 0.033-134 0.0423-202 1.38e-4 -0.996 2.76e-4 -1.99 4.18e-4 -3.02 0.00299-21.6 0.00576-43.3 0.0083-64.9 0.00125-10.6 0.00254-21.2 0.00387-31.8 1.31e-4 -1.06 2.62e-4 -2.11 3.96e-4 -3.2 0.00426-34.2 0.0118-68.4 0.021-103 0.00945-35.2 0.0156-70.3 0.0176-106 2.88e-4 -4.97 6.14e-4 -9.95 9.62e-4 -14.9 1.01e-4 -1.47 1.01e-4 -1.47 2.04e-4 -2.97 0.00118-15.7 0.00581-31.4 0.0118-47.2 0.00591-15.8 0.00813-31.7 0.00667-47.5-7.57e-4 -9.39 0.00124-18.8 0.0073-28.2 0.00378-6.29 0.00384-12.6 0.00103-18.9-0.00149-3.57-0.00151-7.14 0.00305-10.7 0.0142-13.5-0.0645-26.9-0.507-40.4-0.0304-1.07-0.0608-2.15-0.0921-3.26-0.195-5.09-0.517-9.47-2.53-14.2-9.65-1.29-17.4 5.46-24.9 10.8-10.8 7.56-22 14.6-33.2 21.5-5.4 3.36-10.7 6.8-16.1 10.3-6.01 3.9-12.1 7.74-18.1 11.6-6.57 4.17-13.1 8.37-19.5 12.7-14 9.37-28.3 18.4-42.5 27.4-6.28 3.99-12.6 7.98-18.8 12-8.85 5.64-17.7 11.3-26.6 16.9-5.82 3.67-11.6 7.37-17.4 11.1-6.82 4.44-13.7 8.76-20.6 13.1-10 6.25-20 12.6-29.9 19.1-9.7 6.35-19.4 12.6-29.3 18.7-7.02 4.37-13.9 8.87-20.9 13.4-2.13 1.38-4.26 2.77-6.4 4.15-0.702 0.454-1.4 0.908-2.13 1.38-1.41 0.908-2.81 1.82-4.22 2.72-3.72 2.39-7.41 4.82-11.1 7.29l-2.32 1.55c-1.47 0.979-2.93 1.97-4.39 2.96-6.32 4.19-6.32 4.19-10.6 3.35-2.81-2-2.81-2-5-4 0.363-2.62 0.702-3.74 2.73-5.5 0.737-0.459 1.47-0.917 2.23-1.39 1.22-0.771 1.22-0.771 2.47-1.56 0.847-0.512 1.69-1.02 2.57-1.55 0.783-0.476 1.57-0.953 2.37-1.44 2.41-1.45 4.83-2.88 7.25-4.31 8-4.76 15.8-9.77 23.5-15 9.49-6.37 19.2-12.5 28.9-18.5 5.52-3.44 11-6.97 16.4-10.5 5.39-3.5 10.8-6.95 16.3-10.4 7.8-4.91 15.6-9.87 23.3-14.9 0.62-0.4 1.24-0.8 1.88-1.21 6.82-4.4 13.6-8.82 20.4-13.3 11-7.19 22-14.3 33.1-21.4 8.92-5.7 17.8-11.5 26.6-17.3 8.28-5.43 16.6-10.8 25-16 5.03-3.2 9.98-6.5 14.9-9.81 5.6-3.75 11.2-7.45 16.9-11 11.7-7.46 23.3-15.1 34.9-22.8 4.83-3.23 9.71-6.39 14.6-9.49 2.71-1.73 5.37-3.51 8.04-5.31 8.38-5.62 17-11 25.5-16.3-0.33-1.65-0.66-3.3-1-5-11.9-0.905-23.7-1.14-35.6-1.13-1.94-0.00105-3.88-0.00253-5.82-0.0044-5.31-0.00388-10.6-0.00157-15.9 0.00178-5.79 0.00254-11.6-7.26e-4 -17.4-0.00324-10.1-0.00361-20.3-0.0035-30.4-9.53e-4 -10.9 0.00273-21.7 0.00333-32.6 0.00126-0.688-1.29e-4 -1.38-2.58e-4 -2.09-3.91e-4 -2.8-5.33e-4 -5.61-0.00108-8.41-0.00165-26.1-0.00528-52.2-0.00565-78.2-0.00285-1.16 1.24e-4 -1.16 1.24e-4 -2.34 2.51e-4 -0.773 8.29e-5 -1.55 1.66e-4 -2.34 2.51e-4 -23.6 0.00252-47.1 0.00317-70.7 0.00198-1.58-7.75e-5 -3.16-1.55e-4 -4.74-2.31e-4 -6.34-3.1e-4 -12.7-6.29e-4 -19-9.6e-4 -17.7-9.17e-4 -35.5-0.00149-53.2-0.00179-0.807-1.36e-5 -1.61-2.73e-5 -2.45-4.14e-5 -25.7-4.09e-4 -51.4 7.17e-4 -77.2 0.00289-0.834 7.02e-5 -1.67 1.4e-4 -2.53 2.13e-4 -13.5 0.00114-27.1 0.00236-40.6 0.00359-53.7 0.00486-107 0.00463-161-2.31e-4 -13.5-0.00122-27.1-0.00243-40.6-0.00357-1.25-1.06e-4 -1.25-1.06e-4 -2.53-2.13e-4 -25.7-0.00216-51.4-0.00307-77.1-0.00264-0.807 1.36e-5 -1.61 2.72e-5 -2.44 4.12e-5 -17.7 3.12e-4 -35.4 9.46e-4 -53.1 0.00187-6.34 3.29e-4 -12.7 6.42e-4 -19 9.51e-4 -1.58 7.74e-5 -3.15 1.56e-4 -4.73 2.36e-4 -23.6 0.00119-47.1 1.77e-4 -70.7-0.00235-0.772-8.28e-5 -1.54-1.66e-4 -2.34-2.51e-4 -0.771-8.27e-5 -1.54-1.65e-4 -2.34-2.51e-4 -26-0.00276-52-0.00175-78 0.00353-2.79 5.52e-4 -5.58 0.00109-8.37 0.00161-0.685 1.3e-4 -1.37 2.6e-4 -2.08 3.95e-4 -10.2 0.00185-20.4 9.2e-4 -30.6-0.00166-11.3-0.00285-22.7-0.00243-34 0.00251-5.71 0.00239-11.4 0.00318-17.1-4.06e-4 -5.19-0.00323-10.4-0.00186-15.6 0.00318-1.87 0.00101-3.73 3.37e-4 -5.6-0.00221-14.4-0.885-14.4-0.885-28.1 2.13z"/>
<path transform="translate(854 404)" d="m0 0c1.37 0.718 2.73 1.47 4.06 2.25 0.969 0.557 1.94 1.11 2.94 1.69 3.73 2.82 7.14 5.9 10.6 9.06 2.16 1.96 4.36 3.84 6.61 5.69 0.949 0.846 1.9 1.69 2.88 2.56v2h2v2h2v2h2v2c0.552 0.227 1.1 0.454 1.67 0.688 3.02 1.7 5.14 3.86 7.58 6.31 0.892 0.887 1.78 1.77 2.7 2.69 2.05 2.31 2.05 2.31 2.05 4.31 0.593 0.254 1.19 0.508 1.8 0.77 2.45 1.37 3.7 2.75 5.45 4.92 2.19 2.71 4.5 4.99 7.15 7.24 5.69 4.95 11 10.3 16.3 15.6 1.11 1.11 2.22 2.21 3.33 3.32 2.31 2.3 4.61 4.61 6.92 6.91 2.96 2.96 5.92 5.91 8.89 8.86 2.29 2.27 4.57 4.55 6.85 6.83 1.09 1.09 2.19 2.18 3.28 3.27 1.52 1.51 3.04 3.03 4.55 4.55 0.864 0.863 1.73 1.73 2.62 2.61 1.84 2.09 1.84 2.09 1.84 4.09 0.639 0.268 1.28 0.536 1.94 0.812 2.06 1.19 2.06 1.19 3.06 4.19h2c1.52 1.5 1.52 1.5 3.25 3.56 0.619 0.73 1.24 1.46 1.88 2.21 0.619 0.735 1.24 1.47 1.88 2.23 0.835 0.947 0.835 0.947 1.69 1.91 1.47 1.67 2.9 3.37 4.31 5.09 0.619 0.743 1.24 1.48 1.88 2.25 2.25 5.49 1.77 12.1 0.125 17.8-3.21 0.706-6.23 1.14-9.52 1.2-0.896 0.0195-1.79 0.0391-2.71 0.0592-0.991 0.0163-1.98 0.0326-3 0.0495-1.09 0.0205-2.17 0.041-3.29 0.0621-3.78 0.0673-7.56 0.125-11.3 0.181-0.675 0.0104-1.35 0.0207-2.04 0.0314-50.1 0.77-100 0.565-150 0.543-10.8-0.00449-21.5-0.00368-32.3 9.09e-4 -12.7 0.00541-25.4 0.00743-38.1 0.00439-1.37-3.18e-4 -2.73-6.33e-4 -4.1-9.43e-4 -0.671-1.54e-4 -1.34-3.09e-4 -2.03-4.68e-4 -4.6-8.44e-4 -9.21 6.02e-4 -13.8 0.00295-24.1 0.0104-48.1-0.00672-72.2-0.464-1.96-0.0368-3.91-0.0708-5.87-0.102-2.66-0.0439-5.32-0.101-7.99-0.161-1.16-0.0167-1.16-0.0167-2.34-0.0337-6.08-0.164-10.4-0.9-15-4.94-2.04-2.7-2.36-4.58-2.12-7.94 2.5-13.5 19.1-25.8 28.6-35.2 0.684-0.687 1.37-1.37 2.07-2.08 3.62-3.63 7.23-7.26 10.9-10.9 3.71-3.72 7.41-7.44 11.1-11.2 2.87-2.89 5.76-5.78 8.64-8.66 1.37-1.37 2.73-2.74 4.09-4.12 24.3-24.6 24.3-24.6 41-25.5 11.9 0.403 21.1 7.11 29 15.4 0.483 0.54 0.966 1.08 1.46 1.64 2.35 2.54 4.1 3.99 7.4 5.12 2.9 0.184 2.9 0.184 4.98-1.44 0.61-0.682 1.22-1.36 1.85-2.07 0.607-0.659 1.21-1.32 1.84-2 1.24-1.43 2.48-2.87 3.72-4.31 4.07-4.7 8.29-9.19 12.7-13.6 0.659-0.66 1.32-1.32 2-2 1.38-1.38 2.77-2.77 4.15-4.15 2.1-2.09 4.19-4.19 6.29-6.29 1.35-1.35 2.71-2.71 4.06-4.06 0.615-0.617 1.23-1.23 1.86-1.87 4.32-4.3 8.82-8.35 13.5-12.3 1.15-0.992 1.15-0.992 2.33-2 10.8-8.75 22.8-15 36.6-9.25z"/>
<path transform="translate(670 358)" d="m0 0c8.95 5.15 14.5 13.4 17.7 23.1 0.756 9.51 1.04 18.1-5 26-6.28 7.06-14.7 11.5-24.1 12.2-11.2-0.72-18.7-5.61-26.2-13.7-4.33-5.37-6.26-11.7-6.62-18.6 1.6-9.77 5.99-19 14-25 9.54-6.32 19.5-8.81 30.3-4.06z"/>
</svg>